<svg viewBox="0 0 475.03163461596193 67.36963955757969" height="56.093190213228304" width="395.52" xmlns="http://www.w3.org/2000/svg" xmlns:xlink="http://www.w3.org/1999/xlink">
  <g transform="matrix(1,0,0,1,79.51163461596198,7.951573194534806)">
    <svg viewBox="0 0 395.52 51.46649316851008" height="51.46649316851008" width="395.52">
      <g id="textblocktransform">
        <svg viewBox="0 0 395.52 51.46649316851008" height="51.46649316851008" width="395.52" id="textblock">
          <g>
            <svg viewBox="0 0 395.52 51.46649316851008" height="51.46649316851008" width="395.52">
              <g transform="matrix(1,0,0,1,0,0)">
                <svg width="395.52" viewBox="1.25 -39 307.3800048828125 40" height="51.46649316851008" data-palette-color="#0040f0">
                  <path d="M27.45-2.1Q25.95-1 23.28-0.28 20.6 0.45 16.38 0.45 12.15 0.45 8.35-0.25 4.55-0.95 2.9-1.8 1.25-2.65 1.25-3.45L1.25-3.45Q1.25-6.25 2.05-9.28 2.85-12.3 3.95-12.3L3.95-12.3Q4.15-12.3 8.1-10.95 12.05-9.6 14.05-9.6 16.05-9.6 16.65-10.03 17.25-10.45 17.25-11.25 17.25-12.05 16.15-12.68 15.05-13.3 13.4-13.78 11.75-14.25 9.83-15.15 7.9-16.05 6.25-17.15 4.6-18.25 3.5-20.28 2.4-22.3 2.4-24.9L2.4-24.9Q2.4-36 15.65-36L15.65-36Q20.6-36 24.2-35.38 27.8-34.75 29.28-33.98 30.75-33.2 30.75-32.45L30.75-32.45Q30.75-29.85 29.53-26.85 28.3-23.85 27.15-23.85L27.15-23.85Q26.95-23.85 25.85-24.3L25.85-24.3Q22.55-25.75 20.38-25.75 18.2-25.75 17.43-25.35 16.65-24.95 16.65-24.13 16.65-23.3 17.75-22.78 18.85-22.25 20.48-21.83 22.1-21.4 24.03-20.53 25.95-19.65 27.6-18.48 29.25-17.3 30.35-15.15 31.45-13 31.45-10.15L31.45-10.15Q31.45-7.15 29.9-4.7L29.9-4.7Q28.95-3.2 27.45-2.1ZM54.1-0.45Q53.2 0.4 50 0.4 46.8 0.4 44.7-0.03 42.6-0.45 40.7-1.7L40.7-1.7Q37.05-4.15 37.05-11.9L37.05-11.9 37.05-19.7 34.55-19.7Q34-19.7 33.6-20.85 33.2-22 33.2-24 33.2-26 33.82-27.53 34.45-29.05 35.45-29.05L35.45-29.05 37.05-29.05 37.05-35.1Q37.05-36.65 40.07-37.6 43.1-38.55 46-38.55L46-38.55Q50.55-38.55 50.55-36.3L50.55-36.3 50.55-29.05 54.25-29.05Q55.55-29.05 55.55-25.3L55.55-25.3Q55.55-22.85 54.97-21.28 54.4-19.7 53.5-19.7L53.5-19.7 50.55-19.7 50.55-10.55Q50.55-9.2 51.7-8.63 52.85-8.05 53.72-8.05 54.6-8.05 54.8-7.2 55-6.35 55-4.65L55-4.65Q55-1.3 54.1-0.45ZM72.05-15.8L72.05-15.8 72.05-1.2Q72.05-0.65 69.22-0.33 66.4 0 63.37 0 60.35 0 59.45-0.28 58.55-0.55 58.55-1.2L58.55-1.2 58.55-25.85Q58.55-26.8 61.32-27.9 64.1-29 67.37-29 70.65-29 71.05-27.2L71.05-27.2 71.55-24.9 71.9-24.9Q72.6-26.8 75.25-28.13 77.9-29.45 80.55-29.45 83.2-29.45 84.27-28.6 85.35-27.75 85.35-26.43 85.35-25.1 85.15-23.05 84.95-21 84.17-18.6 83.4-16.2 82.15-16.2L82.15-16.2Q81.65-16.2 79-16.95 76.35-17.7 74.62-17.7 72.9-17.7 72.47-17.2 72.05-16.7 72.05-15.8ZM101.59-25.85L101.59-25.85 101.59-1.2Q101.59-0.65 98.72-0.33 95.84 0 92.82 0 89.79 0 88.92-0.28 88.04-0.55 88.04-1.2L88.04-1.2 88.04-24.95Q88.04-26.05 90.87-27.13 93.69-28.2 97.04-28.2L97.04-28.2Q101.59-28.2 101.59-25.85ZM94.79-39L94.79-39Q98.09-39 99.97-38.02 101.84-37.05 101.84-34.5L101.84-34.5Q101.84-30 94.84-30 87.84-30 87.84-34.5 87.84-39 94.79-39ZM118.84-1.2Q118.84-0.65 116.04-0.33 113.24 0 110.19 0 107.14 0 106.24-0.28 105.34-0.55 105.34-1.2L105.34-1.2 105.34-35.8Q105.34-36.9 108.17-37.95 110.99-39 114.24-39L114.24-39Q118.84-39 118.84-36.7L118.84-36.7 118.84-18 119.49-18Q121.89-29.45 123.04-29.45L123.04-29.45Q125.94-29.45 130.04-28.1 134.14-26.75 134.14-25.1L134.14-25.1Q134.14-23.9 132.14-20.5 130.14-17.1 127.99-14.95L127.99-14.95Q135.14-6.4 135.14-4.8L135.14-4.8Q135.14-3.3 130.59-1.15 126.04 1 124.19 1L124.19 1Q123.29 1 122.29-1.18 121.29-3.35 120.14-7.7L120.14-7.7 118.84-6.15 118.84-1.2ZM151.94-11.3L150.29-11.3Q150.29-8.05 153.39-8.05L153.39-8.05Q155.19-8.05 158.09-9.28 160.99-10.5 161.14-10.5L161.14-10.5Q162.09-10.5 163.64-7.65 165.19-4.8 165.19-3.45L165.19-3.45Q165.19-1.5 161.19-0.5 157.19 0.5 153.36 0.5 149.54 0.5 146.96-0.1 144.39-0.7 142.76-1.63 141.14-2.55 139.91-3.9 138.69-5.25 138.09-6.48 137.49-7.7 137.14-9.2L137.14-9.2Q136.64-11.4 136.64-13.75L136.64-13.75Q136.64-22.85 141.39-26.3L141.39-26.3Q143.74-28.05 146.64-28.75 149.54-29.45 153.49-29.45L153.49-29.45Q166.14-29.45 166.14-20.65L166.14-20.65Q166.14-11.3 151.94-11.3L151.94-11.3ZM150.19-18.6L150.19-18.6 150.19-15.3Q151.64-15.3 152.56-16.45 153.49-17.6 153.49-19.25L153.49-19.25Q153.49-22.25 151.94-22.25L151.94-22.25Q150.19-22.25 150.19-18.6ZM207.73-25.35L207.73-25.35Q207.73-24.45 205.08-21.2 202.43-17.95 197.13-12.4L197.13-12.4 207.68-12.4Q208.23-12.4 208.61-10.93 208.98-9.45 208.98-6.78 208.98-4.1 208.36-2.05 207.73 0 206.68 0L206.68 0 182.33 0Q180.88 0 180.26-2.9 179.63-5.8 179.63-9.2L179.63-9.2Q179.63-9.95 182.43-13.3 185.23-16.65 190.88-22.65L190.88-22.65 181.18-22.65Q179.83-22.65 179.83-27L179.83-27Q179.83-30.05 180.48-32.77 181.13-35.5 182.13-35.5L182.13-35.5 205.18-35.5Q207.73-35.5 207.73-25.35ZM227.13 0.45L227.13 0.45Q223.38 0.45 220.68-0.2 217.98-0.85 215.78-2.5L215.78-2.5Q211.23-5.8 211.23-14.8L211.23-14.8Q211.23-22.8 215.88-26.25L215.88-26.25Q220.23-29.45 227.13-29.45L227.13-29.45Q230.08-29.45 232.18-29.18 234.28-28.9 236.46-28 238.63-27.1 239.96-25.55 241.28-24 242.13-21.28 242.98-18.55 242.98-14.8L242.98-14.8Q242.98-7.2 238.68-3.38 234.38 0.45 227.13 0.45ZM225.38-9.3Q225.73-7.5 226.11-7.15 226.48-6.8 227.11-6.8 227.73-6.8 228.11-7.15 228.48-7.5 228.81-9.3 229.13-11.1 229.13-13.83 229.13-16.55 229.01-18.03 228.88-19.5 228.71-20.3 228.53-21.1 228.23-21.55L228.23-21.55Q227.78-22.2 227.16-22.2 226.53-22.2 226.13-21.83 225.73-21.45 225.38-19.63 225.03-17.8 225.03-14.45 225.03-11.1 225.38-9.3ZM276.13-16.6L276.13-16.6 276.13-1.2Q276.13-0.65 273.28-0.33 270.43 0 267.4 0 264.38 0 263.5-0.28 262.63-0.55 262.63-1.2L262.63-1.2 262.63-17.1Q262.63-19.35 262.45-20.05 262.28-20.75 262.13-21.3L262.13-21.3Q261.78-22.25 260.88-22.25L260.88-22.25Q259.48-22.25 259.48-20.9L259.48-20.9 259.48-1.2Q259.48-0.65 256.65-0.33 253.83 0 250.8 0 247.78 0 246.88-0.28 245.98-0.55 245.98-1.2L245.98-1.2 245.98-25.85Q245.98-26.9 248.85-27.95 251.73-29 254.93-29 258.13-29 258.53-27.15L258.53-27.15 258.98-24.95 259.33-24.95Q260.78-27.85 264.33-29L264.33-29Q265.78-29.45 267.53-29.45L267.53-29.45Q272.58-29.45 274.35-26.43 276.13-23.4 276.13-16.6ZM294.43-11.3L292.77-11.3Q292.77-8.05 295.88-8.05L295.88-8.05Q297.68-8.05 300.57-9.28 303.48-10.5 303.63-10.5L303.63-10.5Q304.57-10.5 306.13-7.65 307.68-4.8 307.68-3.45L307.68-3.45Q307.68-1.5 303.68-0.5 299.68 0.5 295.85 0.5 292.02 0.5 289.45-0.1 286.88-0.7 285.25-1.63 283.63-2.55 282.4-3.9 281.18-5.25 280.57-6.48 279.98-7.7 279.63-9.2L279.63-9.2Q279.13-11.4 279.13-13.75L279.13-13.75Q279.13-22.85 283.88-26.3L283.88-26.3Q286.23-28.05 289.13-28.75 292.02-29.45 295.98-29.45L295.98-29.45Q308.63-29.45 308.63-20.65L308.63-20.65Q308.63-11.3 294.43-11.3L294.43-11.3ZM292.68-18.6L292.68-18.6 292.68-15.3Q294.13-15.3 295.05-16.45 295.98-17.6 295.98-19.25L295.98-19.25Q295.98-22.25 294.43-22.25L294.43-22.25Q292.68-22.25 292.68-18.6Z" opacity="1" transform="matrix(1,0,0,1,0,0)" fill="#0040f0" class="wordmark-text-0" data-fill-palette-color="primary" id="text-0"></path>
                </svg>
              </g>
            </svg>
          </g>
        </svg>
      </g>
    </svg>
  </g>
  <g>
    <svg viewBox="0 0 67.3616307747128 67.36963955757969" height="67.36963955757969" width="67.3616307747128">
      <g>
        <svg xmlns="http://www.w3.org/2000/svg" xmlns:xlink="http://www.w3.org/1999/xlink" version="1.1" x="0" y="0" viewBox="9.636625289916992 9.630833625793457 80.72662353515625 80.73622131347656" enable-background="new 0 0 100 100" xml:space="preserve" height="67.36963955757969" width="67.3616307747128" class="icon-icon-0" data-fill-palette-color="accent" id="icon-0">
          <path fill="#0040f0" d="M27.503 37.012C23.421 44.084 16.922 48.881 9.65 50.97c-0.185-7.172 1.546-14.489 5.393-21.153 3.848-6.663 9.318-11.819 15.621-15.246C32.492 21.913 31.587 29.939 27.503 37.012z" data-fill-palette-color="accent"></path>
          <path fill="#0040f0" d="M63.757 57.942c-5.676 9.832-6.742 21.063-3.875 31.189-9.824 2.482-20.595 1.293-30.066-4.174-9.47-5.467-15.886-14.201-18.646-23.951 10.205-2.58 19.398-9.119 25.072-18.95 5.676-9.83 6.744-21.061 3.875-31.188 9.824-2.484 20.593-1.294 30.066 4.174 9.469 5.467 15.887 14.199 18.648 23.951C78.624 41.573 69.433 48.112 63.757 57.942z" data-fill-palette-color="accent"></path>
          <path fill="#0040f0" d="M84.956 70.183c-3.848 6.664-9.316 11.82-15.621 15.246-1.828-7.342-0.922-15.367 3.16-22.441 4.082-7.072 10.582-11.869 17.855-13.958C90.534 56.202 88.804 63.521 84.956 70.183z" data-fill-palette-color="accent"></path>
        </svg>
      </g>
    </svg>
  </g>
</svg>