<svg xmlns="http://www.w3.org/2000/svg" xmlns:xlink="http://www.w3.org/1999/xlink" viewBox="0 0 463.5134602713334 55.01199999999999" height="55.01199999999999" width="463.5134602713334">
  <g>
    <svg xmlns="http://www.w3.org/2000/svg" xmlns:xlink="http://www.w3.org/1999/xlink" version="1.1" x="0" y="0" viewBox="9.636625289916992 9.630833625793457 80.72662353515625 80.73622131347656" enable-background="new 0 0 100 100" xml:space="preserve" height="55.01199999999999" width="55.00546027133339" class="icon-s-0" data-fill-palette-color="accent" id="s-0">
      <path fill="#0040f0" d="M27.503 37.012C23.421 44.084 16.922 48.881 9.65 50.97c-0.185-7.172 1.546-14.489 5.393-21.153 3.848-6.663 9.318-11.819 15.621-15.246C32.492 21.913 31.587 29.939 27.503 37.012z" data-fill-palette-color="accent"></path>
      <path fill="#0040f0" d="M63.757 57.942c-5.676 9.832-6.742 21.063-3.875 31.189-9.824 2.482-20.595 1.293-30.066-4.174-9.47-5.467-15.886-14.201-18.646-23.951 10.205-2.58 19.398-9.119 25.072-18.95 5.676-9.83 6.744-21.061 3.875-31.188 9.824-2.484 20.593-1.294 30.066 4.174 9.469 5.467 15.887 14.199 18.648 23.951C78.624 41.573 69.433 48.112 63.757 57.942z" data-fill-palette-color="accent"></path>
      <path fill="#0040f0" d="M84.956 70.183c-3.848 6.664-9.316 11.82-15.621 15.246-1.828-7.342-0.922-15.367 3.16-22.441 4.082-7.072 10.582-11.869 17.855-13.958C90.534 56.202 88.804 63.521 84.956 70.183z" data-fill-palette-color="accent"></path>
    </svg>
  </g>
  <g transform="matrix(1,0,0,1,67.99346027133339,6.457823446548755)">
    <svg width="395.52" viewBox="0.30000001192092896 -33.5 319.4300231933594 34" height="42.096353106902484" data-palette-color="#0040f0">
      <path d="M16.75-33.5L16.75-33.5Q21.45-33.5 25.1-32.23 28.75-30.95 31.5-28.35L31.5-28.35 27.05-21.8Q24.8-23.7 22.28-24.78 19.75-25.85 16.7-25.85L16.7-25.85Q15.15-25.85 14.2-25.55 13.25-25.25 12.83-24.73 12.4-24.2 12.4-23.55L12.4-23.55Q12.4-22.75 13.38-22.25 14.35-21.75 16.1-21.35L16.1-21.35 21.1-20.2Q26.1-19.05 28.55-16.82 31-14.6 31-10.75L31-10.75Q31-7 29.13-4.5 27.25-2 24-0.75 20.75 0.5 16.65 0.5L16.65 0.5Q13.4 0.5 10.33-0.15 7.25-0.8 4.7-2.02 2.15-3.25 0.3-4.95L0.3-4.95 4.7-11.7Q6.05-10.4 8-9.38 9.95-8.35 12.15-7.75 14.35-7.15 16.4-7.15L16.4-7.15Q17.85-7.15 18.78-7.43 19.7-7.7 20.1-8.2 20.5-8.7 20.5-9.4L20.5-9.4Q20.5-10.25 19.85-10.78 19.2-11.3 17.4-11.7L17.4-11.7 11.9-12.95Q9.2-13.55 6.9-14.6 4.6-15.65 3.23-17.53 1.85-19.4 1.85-22.45L1.85-22.45Q1.85-25.7 3.6-28.2 5.35-30.7 8.7-32.1 12.05-33.5 16.75-33.5ZM33.45-33L64.75-33 64.75-25.35 54.25-25.35 54.25 0 44.05 0 44.05-25.35 33.45-25.35 33.45-33ZM68.95-33L85.85-33Q92-33 95.37-30.18 98.75-27.35 98.75-22.65L98.75-22.65Q98.75-17.4 95.45-14.7 92.15-12 85.95-12L85.95-12 84.95-11.45 78.95-11.45 78.95 0 68.95 0 68.95-33ZM78.95-18.4L84.2-18.4Q86.35-18.4 87.42-19.23 88.5-20.05 88.5-21.95L88.5-21.95Q88.5-23.85 87.42-24.7 86.35-25.55 84.2-25.55L84.2-25.55 78.95-25.55 78.95-18.4ZM81.45-14.45L90.25-16.25 100.65 0 89.5 0 81.45-14.45ZM103.84-33L114.04-33 114.04 0 103.84 0 103.84-33ZM140.44-33L151.49-33 135.64-13.15 135.14-15.1 127.59-5.35 125.39-12.9 140.44-33ZM120.14-33L130.34-33 130.34 0 120.14 0 120.14-33ZM131.74-16.9L139.29-22.55 152.29 0 140.74 0 131.74-16.9ZM182.69 0L155.44 0 155.44-33 182.04-33 182.04-25.35 165.64-25.35 165.64-20 178.74-20 178.74-12.9 165.64-12.9 165.64-7.65 182.69-7.65 182.69 0ZM213.89-25.85L193.14-4.05 191.34-7.45 214.44-7.45 214.44 0 185.34 0 185.34-7.15 206.14-28.95 207.89-25.55 185.59-25.55 185.59-33 213.89-33 213.89-25.85ZM233.93-33.5L233.93-33.5Q239.08-33.5 242.76-31.48 246.43-29.45 248.41-25.65 250.38-21.85 250.38-16.5L250.38-16.5Q250.38-11.15 248.41-7.35 246.43-3.55 242.76-1.53 239.08 0.5 233.93 0.5L233.93 0.5Q228.83 0.5 225.11-1.53 221.38-3.55 219.38-7.35 217.38-11.15 217.38-16.5L217.38-16.5Q217.38-21.85 219.38-25.65 221.38-29.45 225.11-31.48 228.83-33.5 233.93-33.5ZM233.93-25.7L233.93-25.7Q231.88-25.7 230.56-24.68 229.23-23.65 228.56-21.65 227.88-19.65 227.88-16.5L227.88-16.5Q227.88-13.4 228.56-11.38 229.23-9.35 230.56-8.33 231.88-7.3 233.93-7.3L233.93-7.3Q235.93-7.3 237.28-8.33 238.63-9.35 239.28-11.38 239.93-13.4 239.93-16.5L239.93-16.5Q239.93-19.65 239.28-21.65 238.63-23.65 237.28-24.68 235.93-25.7 233.93-25.7ZM277.43-33L286.38-33 286.38 0 275.18 0 266.18-16.35 264.08-20.8 263.98-20.8 264.18-14.3 264.18 0 255.28 0 255.28-33 266.43-33 275.43-16.65 277.58-12.2 277.63-12.2 277.43-18.7 277.43-33ZM319.73 0L292.48 0 292.48-33 319.08-33 319.08-25.35 302.68-25.35 302.68-20 315.78-20 315.78-12.9 302.68-12.9 302.68-7.65 319.73-7.65 319.73 0Z" opacity="1" transform="matrix(1,0,0,1,0,0)" fill="#0040f0" class="undefined-text-0" data-fill-palette-color="primary"></path>
    </svg>
  </g>
</svg>